<svg xmlns="http://www.w3.org/2000/svg" xmlns:xlink="http://www.w3.org/1999/xlink" width="2000" zoomAndPan="magnify" viewBox="0 0 1500 1499.999933" height="2000" preserveAspectRatio="xMidYMid meet" version="1.0"><defs><clipPath id="3b40e04e72"><path d="M 33.734375 150 L 1466.257812 150 L 1466.257812 1319.164062 L 33.734375 1319.164062 Z M 33.734375 150 " clip-rule="nonzero"/></clipPath></defs><g clip-path="url(#3b40e04e72)"><path fill="#1800ad" d="M 121.734375 423.578125 C 121.734375 373.707031 162.328125 333.140625 212.207031 333.140625 L 535.945312 333.140625 L 595.945312 243.046875 C 597.625 241.089844 602.839844 238.300781 604.863281 238 L 894.617188 237.988281 C 897.121094 238.289062 902.257812 241.019531 903.636719 242.589844 L 964.027344 333.140625 L 1287.832031 333.140625 C 1337.691406 333.140625 1378.261719 373.707031 1378.261719 423.578125 L 1378.261719 1140.679688 C 1378.261719 1190.574219 1337.691406 1231.175781 1287.832031 1231.175781 L 212.207031 1231.175781 C 162.328125 1231.175781 121.734375 1190.574219 121.734375 1140.679688 Z M 212.207031 1319.164062 L 1287.832031 1319.164062 C 1386.21875 1319.164062 1466.257812 1239.109375 1466.257812 1140.679688 L 1466.257812 423.578125 C 1466.257812 325.191406 1386.21875 245.140625 1287.832031 245.140625 L 1011.132812 245.140625 L 976.90625 193.835938 C 960.0625 168.433594 925.671875 150.011719 895.152344 150.011719 L 604.863281 150.011719 C 573.929688 150.011719 540.324219 167.972656 523.054688 193.757812 L 488.820312 245.140625 L 212.207031 245.140625 C 113.800781 245.140625 33.734375 325.191406 33.734375 423.578125 L 33.734375 1140.679688 C 33.734375 1239.109375 113.800781 1319.164062 212.207031 1319.164062 " fill-opacity="1" fill-rule="nonzero"/></g><path fill="#1800ad" d="M 749.996094 481.082031 C 916.035156 481.082031 1051.117188 616.152344 1051.117188 782.191406 C 1051.117188 948.183594 916.035156 1083.234375 749.996094 1083.234375 C 583.980469 1083.234375 448.898438 948.183594 448.898438 782.191406 C 448.898438 616.152344 583.980469 481.082031 749.996094 481.082031 Z M 749.996094 1171.234375 C 964.550781 1171.234375 1139.105469 996.699219 1139.105469 782.191406 C 1139.105469 567.636719 964.550781 393.082031 749.996094 393.082031 C 535.445312 393.082031 360.898438 567.636719 360.898438 782.191406 C 360.898438 996.699219 535.445312 1171.234375 749.996094 1171.234375 " fill-opacity="1" fill-rule="nonzero"/><path fill="#5271ff" d="M 749.996094 993.21875 C 866.570312 993.21875 961.082031 898.730469 961.082031 782.179688 C 961.082031 665.585938 866.570312 571.09375 749.996094 571.09375 C 633.449219 571.09375 538.914062 665.585938 538.914062 782.179688 C 538.914062 898.730469 633.449219 993.21875 749.996094 993.21875 " fill-opacity="1" fill-rule="nonzero"/><path fill="#1800ad" d="M 286.363281 429.566406 C 311.945312 429.566406 332.753906 450.371094 332.753906 475.957031 C 332.753906 501.539062 311.945312 522.355469 286.363281 522.355469 C 260.757812 522.355469 239.953125 501.539062 239.953125 475.957031 C 239.953125 450.371094 260.757812 429.566406 286.363281 429.566406 Z M 286.363281 581.03125 C 344.300781 581.03125 391.441406 533.894531 391.441406 475.957031 C 391.441406 418.027344 344.300781 370.878906 286.363281 370.878906 C 228.414062 370.878906 181.261719 418.027344 181.261719 475.957031 C 181.261719 533.894531 228.414062 581.03125 286.363281 581.03125 " fill-opacity="1" fill-rule="nonzero"/></svg>